<?xml version="1.0" encoding="UTF-8" standalone="no"?>
<svg
   xmlns:dc="http://purl.org/dc/elements/1.1/"
   xmlns:cc="http://creativecommons.org/ns#"
   xmlns:rdf="http://www.w3.org/1999/02/22-rdf-syntax-ns#"
   xmlns:svg="http://www.w3.org/2000/svg"
   xmlns="http://www.w3.org/2000/svg"
   xmlns:sodipodi="http://sodipodi.sourceforge.net/DTD/sodipodi-0.dtd"
   xmlns:inkscape="http://www.inkscape.org/namespaces/inkscape"
   inkscape:version="1.0 (4035a4f, 2020-05-01)"
   sodipodi:docname="species_analysis_icon.svg"
   version="1.1"
   id="Layer_1"
   x="0px"
   y="0px"
   viewBox="0 0 50 340"
   xml:space="preserve"
   width="50"
   height="340"><sodipodi:namedview
   inkscape:current-layer="Layer_1"
   inkscape:window-maximized="1"
   inkscape:window-y="18"
   inkscape:window-x="1920"
   inkscape:cy="170"
   inkscape:cx="25"
   inkscape:zoom="2.5470588"
   showgrid="false"
   id="namedview951"
   inkscape:window-height="1041"
   inkscape:window-width="1916"
   inkscape:pageshadow="2"
   inkscape:pageopacity="0"
   guidetolerance="10"
   gridtolerance="10"
   objecttolerance="10"
   borderopacity="1"
   bordercolor="#666666"
   pagecolor="#ffffff" /><metadata
   id="metadata4027"><rdf:RDF><cc:Work
       rdf:about=""><dc:format>image/svg+xml</dc:format><dc:type
         rdf:resource="http://purl.org/dc/dcmitype/StillImage" /><dc:title /></cc:Work></rdf:RDF></metadata><defs
   id="defs4025"><rect
     x="78.51133"
     y="52.306458"
     width="371.88895"
     height="384.95721"
     id="rect4598" /><rect
     x="147.45552"
     y="204.90923"
     width="265.69366"
     height="216.703"
     id="rect4592" /></defs>
<g
   style="fill:#ffffff"
   id="g3990"
   transform="translate(-147.65039,-77.660936)">
	<g
   style="fill:#ffffff"
   id="g3988"
   transform="matrix(0.21384997,0,0,0.21384997,186.01768,76.520474)">
		<path
   d="M 4.0826241,720.34849 -18.683904,700.42761 c -1.128015,-0.98688 -2.826973,-0.93032 -3.886689,0.12912 l -13.732805,13.73281 -9.33707,-30.34568 7.771243,-6.04427 12.45245,12.45299 c 0.662722,0.66246 1.608515,0.95646 2.532163,0.78544 0.921515,-0.171 1.700027,-0.78544 2.080745,-1.64212 L 1.9626613,638.27101 c 0.6381762,-1.43617 -0.00876,-3.11778 -1.44470212,-3.75622 -1.43723166,-0.63845 -3.11831508,0.009 -3.75622508,1.4447 L -24.32211,683.39773 -35.620933,672.09864 c -1.014626,-1.01435 -2.62741,-1.11467 -3.759426,-0.23371 l -8.050312,6.26145 -10.249247,-33.31059 c -0.337763,-1.0968 -1.300632,-1.88358 -2.44252,-1.99537 -1.141621,-0.11018 -2.239222,0.47276 -2.783219,1.48312 l -14.412603,26.76633 -12.13016,-15.76925 c -0.520786,-0.67713 -1.318241,-1.08453 -2.172522,-1.10961 -0.862819,-0.0163 -1.674147,0.33563 -2.233619,0.98101 l -31.999549,36.92247 v -74.90012 c 0,-1.5717 -1.27422,-2.84592 -2.84592,-2.84592 -1.57169,0 -2.84565,1.27422 -2.84565,2.84592 v 128.06222 c 0,1.5717 1.27423,2.84592 2.84592,2.84592 H -0.63753564 c 1.571697,0 2.84591594,-1.27422 2.84591594,-2.84592 0,-1.57169 -1.27421894,-2.84592 -2.84591594,-2.84592 H -125.85411 v -19.92088 h 25.61245 c 1.047171,0 2.009239,-0.57494 2.505747,-1.49645 l 21.263397,-39.48905 10.971198,14.26239 c 0.461558,0.60029 1.144023,0.99168 1.895054,1.08772 0.750498,0.0966 1.510067,-0.11152 2.107691,-0.57654 l 11.053103,-8.59698 10.092371,32.79993 c 0.293476,0.95381 1.065584,1.68456 2.034055,1.92494 0.968737,0.24119 1.992702,-0.0435 2.698644,-0.74943 l 15.192182,-15.19244 20.7628881,18.16749 c 0.54026245,0.4725 1.2077868,0.70407 1.8731768,0.70407 0.7921179,0 1.580234,-0.32896 2.1426412,-0.97167 1.0343695,-1.18243 0.9145773,-2.98037 -0.267864,-4.01528 z M -101.94142,716.7985 h -23.91269 v -16.01338 l 34.018664,-39.25241 11.560283,15.02837 z m 39.207047,-26.76981 -10.781239,-14.01561 12.396423,-23.02185 8.883784,28.8719 z"
   id="path3986"
   style="stroke-width:0.266796;fill:#ffffff" />
	</g>
<g
   aria-label="Species Analysis"
   transform="matrix(0.2667963,0,0,0.2667963,108.25782,187.17922)"
   id="text4590"
   style="font-style:normal;font-weight:normal;font-size:40px;line-height:1.25;font-family:sans-serif;letter-spacing:0px;word-spacing:0px;white-space:pre;shape-inside:url(#rect4592);fill:#ffffff;fill-opacity:1;stroke:none"><path
     d="m 171.41992,212.05859 v 6.17188 q -2.40234,-1.07422 -4.6875,-1.6211 -2.28515,-0.54687 -4.3164,-0.54687 -2.69532,0 -3.98438,0.74219 -1.28906,0.74218 -1.28906,2.30468 0,1.17188 0.85937,1.83594 0.87891,0.64453 3.16407,1.11328 l 3.20312,0.64453 q 4.86328,0.97657 6.91406,2.96875 2.05078,1.99219 2.05078,5.66407 0,4.82422 -2.87109,7.1875 -2.85156,2.34375 -8.73047,2.34375 -2.77344,0 -5.5664,-0.52735 -2.79297,-0.52734 -5.58594,-1.5625 v -6.34765 q 2.79297,1.48437 5.39062,2.24609 2.61719,0.74219 5.03907,0.74219 2.46093,0 3.76953,-0.82031 1.30859,-0.82032 1.30859,-2.34375 0,-1.36719 -0.89844,-2.10938 -0.8789,-0.74219 -3.53515,-1.32812 l -2.91016,-0.64454 q -4.375,-0.9375 -6.40625,-2.98828 -2.01172,-2.05078 -2.01172,-5.52734 0,-4.35547 2.8125,-6.69922 2.8125,-2.34375 8.08594,-2.34375 2.40234,0 4.94141,0.37109 2.53906,0.35157 5.2539,1.07422 z"
     style="font-style:normal;font-variant:normal;font-weight:bold;font-stretch:normal;font-family:sans-serif;-inkscape-font-specification:'sans-serif Bold';fill:#ffffff"
     id="path4602" /><path
     d="m 186.63477,237.13672 v 11.48437 h -6.99219 v -30.19531 h 6.99219 v 3.20313 q 1.44531,-1.91407 3.20312,-2.8125 1.75781,-0.91797 4.04297,-0.91797 4.04297,0 6.64062,3.22265 2.59766,3.20313 2.59766,8.26172 0,5.0586 -2.59766,8.28125 -2.59765,3.20313 -6.64062,3.20313 -2.28516,0 -4.04297,-0.89844 -1.75781,-0.91797 -3.20312,-2.83203 z m 4.64843,-14.16016 q -2.24609,0 -3.45703,1.66016 -1.1914,1.64062 -1.1914,4.74609 0,3.10547 1.1914,4.76563 1.21094,1.64062 3.45703,1.64062 2.2461,0 3.41797,-1.64062 1.19141,-1.64063 1.19141,-4.76563 0,-3.125 -1.19141,-4.76562 -1.17187,-1.64063 -3.41797,-1.64063 z"
     style="font-style:normal;font-variant:normal;font-weight:bold;font-stretch:normal;font-family:sans-serif;-inkscape-font-specification:'sans-serif Bold';fill:#ffffff"
     id="path4604" /><path
     d="m 230.15039,229.30469 v 1.99218 h -16.34766 q 0.25391,2.46094 1.77735,3.69141 1.52344,1.23047 4.25781,1.23047 2.20703,0 4.51172,-0.64453 2.32422,-0.66406 4.76562,-1.99219 v 5.39063 q -2.48046,0.9375 -4.96093,1.40625 -2.48047,0.48828 -4.96094,0.48828 -5.9375,0 -9.23828,-3.00782 -3.28125,-3.02734 -3.28125,-8.47656 0,-5.35156 3.22265,-8.41797 3.24219,-3.0664 8.90625,-3.0664 5.15625,0 8.24219,3.10547 3.10547,3.10546 3.10547,8.30078 z m -7.1875,-2.32422 q 0,-1.99219 -1.17187,-3.20313 -1.15235,-1.23047 -3.02735,-1.23047 -2.03125,0 -3.30078,1.15235 -1.26953,1.13281 -1.58203,3.28125 z"
     style="font-style:normal;font-variant:normal;font-weight:bold;font-stretch:normal;font-family:sans-serif;-inkscape-font-specification:'sans-serif Bold';fill:#ffffff"
     id="path4606" /><path
     d="m 253.09961,219.10937 v 5.70313 q -1.42578,-0.97656 -2.87109,-1.44531 -1.42579,-0.46875 -2.96875,-0.46875 -2.92969,0 -4.57032,1.71875 -1.62109,1.69922 -1.62109,4.76562 0,3.06641 1.62109,4.78516 1.64063,1.69922 4.57032,1.69922 1.64062,0 3.10546,-0.48828 1.48438,-0.48829 2.73438,-1.44532 v 5.72266 q -1.64063,0.60547 -3.33984,0.89844 -1.67969,0.3125 -3.37891,0.3125 -5.91797,0 -9.25781,-3.02735 -3.33985,-3.04687 -3.33985,-8.45703 0,-5.41015 3.33985,-8.4375 3.33984,-3.04687 9.25781,-3.04687 1.71875,0 3.37891,0.3125 1.67968,0.29297 3.33984,0.89843 z"
     style="font-style:normal;font-variant:normal;font-weight:bold;font-stretch:normal;font-family:sans-serif;-inkscape-font-specification:'sans-serif Bold';fill:#ffffff"
     id="path4608" /><path
     d="m 259.17383,218.42578 h 6.99219 v 21.875 h -6.99219 z m 0,-8.51562 h 6.99219 v 5.70312 h -6.99219 z"
     style="font-style:normal;font-variant:normal;font-weight:bold;font-stretch:normal;font-family:sans-serif;-inkscape-font-specification:'sans-serif Bold';fill:#ffffff"
     id="path4610" /><path
     d="m 294.75977,229.30469 v 1.99218 h -16.34766 q 0.25391,2.46094 1.77734,3.69141 1.52344,1.23047 4.25782,1.23047 2.20703,0 4.51171,-0.64453 2.32422,-0.66406 4.76563,-1.99219 v 5.39063 q -2.48047,0.9375 -4.96094,1.40625 -2.48047,0.48828 -4.96094,0.48828 -5.9375,0 -9.23828,-3.00782 -3.28125,-3.02734 -3.28125,-8.47656 0,-5.35156 3.22266,-8.41797 3.24219,-3.0664 8.90625,-3.0664 5.15625,0 8.24219,3.10547 3.10547,3.10546 3.10547,8.30078 z m -7.1875,-2.32422 q 0,-1.99219 -1.17188,-3.20313 -1.15234,-1.23047 -3.02734,-1.23047 -2.03125,0 -3.30078,1.15235 -1.26954,1.13281 -1.58204,3.28125 z"
     style="font-style:normal;font-variant:normal;font-weight:bold;font-stretch:normal;font-family:sans-serif;-inkscape-font-specification:'sans-serif Bold';fill:#ffffff"
     id="path4612" /><path
     d="m 317.12305,219.10937 v 5.3125 q -2.2461,-0.9375 -4.33594,-1.40625 -2.08984,-0.46875 -3.94531,-0.46875 -1.99219,0 -2.96875,0.50782 -0.95703,0.48828 -0.95703,1.52343 0,0.83985 0.72265,1.28907 0.74219,0.44922 2.63672,0.66406 l 1.23047,0.17578 q 5.37109,0.68359 7.22656,2.24609 1.85547,1.5625 1.85547,4.90235 0,3.49609 -2.57812,5.2539 -2.57813,1.75782 -7.69532,1.75782 -2.16797,0 -4.49218,-0.35157 -2.30469,-0.33203 -4.7461,-1.01562 v -5.3125 q 2.08985,1.01562 4.27735,1.52344 2.20703,0.50781 4.47265,0.50781 2.05078,0 3.08594,-0.56641 1.03516,-0.5664 1.03516,-1.67968 0,-0.9375 -0.72266,-1.38672 -0.70313,-0.46875 -2.83203,-0.72266 l -1.23047,-0.15625 q -4.66797,-0.58594 -6.54297,-2.16797 -1.875,-1.58203 -1.875,-4.80469 0,-3.47656 2.38281,-5.15625 2.38282,-1.67968 7.30469,-1.67968 1.93359,0 4.0625,0.29297 2.12891,0.29296 4.62891,0.91796 z"
     style="font-style:normal;font-variant:normal;font-weight:bold;font-stretch:normal;font-family:sans-serif;-inkscape-font-specification:'sans-serif Bold';fill:#ffffff"
     id="path4614" /><path
     d="m 168.82227,284.98828 h -11.75782 l -1.85547,5.3125 h -7.55859 l 10.80078,-29.16016 h 8.96485 l 10.80078,29.16016 h -7.5586 z m -9.88282,-5.41016 h 7.98828 l -3.98437,-11.60156 z"
     style="font-style:normal;font-variant:normal;font-weight:bold;font-stretch:normal;font-family:sans-serif;-inkscape-font-specification:'sans-serif Bold';fill:#ffffff"
     id="path4616" /><path
     d="m 203.74414,276.98047 v 13.32031 h -7.03125 v -2.16797 -8.02734 q 0,-2.83203 -0.13672,-3.90625 -0.11719,-1.07422 -0.42969,-1.58203 -0.41015,-0.6836 -1.11328,-1.05469 -0.70312,-0.39063 -1.60156,-0.39063 -2.1875,0 -3.4375,1.69922 -1.25,1.67969 -1.25,4.66797 v 10.76172 h -6.99219 v -21.875 h 6.99219 v 3.20313 q 1.58203,-1.91407 3.35938,-2.8125 1.77734,-0.91797 3.92578,-0.91797 3.78906,0 5.74218,2.32422 1.97266,2.32421 1.97266,6.75781 z"
     style="font-style:normal;font-variant:normal;font-weight:bold;font-stretch:normal;font-family:sans-serif;-inkscape-font-specification:'sans-serif Bold';fill:#ffffff"
     id="path4618" /><path
     d="m 220.07227,280.45703 q -2.1875,0 -3.30079,0.74219 -1.09375,0.74219 -1.09375,2.1875 0,1.32812 0.87891,2.08984 0.89844,0.74219 2.48047,0.74219 1.97266,0 3.32031,-1.40625 1.34766,-1.42578 1.34766,-3.55469 v -0.80078 z m 10.68359,-2.63672 v 12.48047 h -7.05078 v -3.24219 q -1.40625,1.99219 -3.16406,2.91016 -1.75782,0.89844 -4.27735,0.89844 -3.39844,0 -5.52734,-1.97266 -2.10938,-1.99219 -2.10938,-5.15625 0,-3.84766 2.63672,-5.64453 2.65625,-1.79688 8.32031,-1.79688 h 4.1211 V 275.75 q 0,-1.66016 -1.3086,-2.42188 -1.30859,-0.78125 -4.08203,-0.78125 -2.24609,0 -4.17968,0.44922 -1.9336,0.44922 -3.59375,1.34766 v -5.33203 q 2.24609,-0.54688 4.51171,-0.82031 2.26563,-0.29297 4.53125,-0.29297 5.91797,0 8.53516,2.34375 2.63672,2.32422 2.63672,7.57812 z"
     style="font-style:normal;font-variant:normal;font-weight:bold;font-stretch:normal;font-family:sans-serif;-inkscape-font-specification:'sans-serif Bold';fill:#ffffff"
     id="path4620" /><path
     d="m 237.29883,259.91016 h 6.99219 v 30.39062 h -6.99219 z"
     style="font-style:normal;font-variant:normal;font-weight:bold;font-stretch:normal;font-family:sans-serif;-inkscape-font-specification:'sans-serif Bold';fill:#ffffff"
     id="path4622" /><path
     d="m 248.17773,268.42578 h 6.99219 l 5.87891,14.84375 5,-14.84375 h 6.99219 l -9.19922,23.94531 q -1.38672,3.65235 -3.24219,5.09766 -1.83594,1.46484 -4.86328,1.46484 h -4.04297 v -4.58984 h 2.1875 q 1.77734,0 2.57812,-0.56641 0.82032,-0.5664 1.26954,-2.03125 l 0.19531,-0.60547 z"
     style="font-style:normal;font-variant:normal;font-weight:bold;font-stretch:normal;font-family:sans-serif;-inkscape-font-specification:'sans-serif Bold';fill:#ffffff"
     id="path4624" /><path
     d="m 294.23242,269.10937 v 5.3125 q -2.24609,-0.9375 -4.33594,-1.40625 -2.08984,-0.46875 -3.94531,-0.46875 -1.99219,0 -2.96875,0.50782 -0.95703,0.48828 -0.95703,1.52343 0,0.83985 0.72266,1.28907 0.74218,0.44922 2.63672,0.66406 l 1.23046,0.17578 q 5.3711,0.68359 7.22657,2.24609 1.85547,1.5625 1.85547,4.90235 0,3.49609 -2.57813,5.2539 -2.57812,1.75782 -7.69531,1.75782 -2.16797,0 -4.49219,-0.35157 -2.30469,-0.33203 -4.74609,-1.01562 v -5.3125 q 2.08984,1.01562 4.27734,1.52344 2.20703,0.50781 4.47266,0.50781 2.05078,0 3.08593,-0.56641 1.03516,-0.5664 1.03516,-1.67968 0,-0.9375 -0.72266,-1.38672 -0.70312,-0.46875 -2.83203,-0.72266 l -1.23047,-0.15625 q -4.66796,-0.58594 -6.54296,-2.16797 -1.875,-1.58203 -1.875,-4.80469 0,-3.47656 2.38281,-5.15625 2.38281,-1.67968 7.30469,-1.67968 1.93359,0 4.0625,0.29297 2.1289,0.29296 4.6289,0.91796 z"
     style="font-style:normal;font-variant:normal;font-weight:bold;font-stretch:normal;font-family:sans-serif;-inkscape-font-specification:'sans-serif Bold';fill:#ffffff"
     id="path4626" /><path
     d="m 300.9707,268.42578 h 6.99219 v 21.875 h -6.99219 z m 0,-8.51562 h 6.99219 v 5.70312 h -6.99219 z"
     style="font-style:normal;font-variant:normal;font-weight:bold;font-stretch:normal;font-family:sans-serif;-inkscape-font-specification:'sans-serif Bold';fill:#ffffff"
     id="path4628" /><path
     d="m 331.81055,269.10937 v 5.3125 q -2.2461,-0.9375 -4.33594,-1.40625 -2.08984,-0.46875 -3.94531,-0.46875 -1.99219,0 -2.96875,0.50782 -0.95703,0.48828 -0.95703,1.52343 0,0.83985 0.72265,1.28907 0.74219,0.44922 2.63672,0.66406 l 1.23047,0.17578 q 5.37109,0.68359 7.22656,2.24609 1.85547,1.5625 1.85547,4.90235 0,3.49609 -2.57812,5.2539 -2.57813,1.75782 -7.69532,1.75782 -2.16797,0 -4.49218,-0.35157 -2.30469,-0.33203 -4.7461,-1.01562 v -5.3125 q 2.08985,1.01562 4.27735,1.52344 2.20703,0.50781 4.47265,0.50781 2.05078,0 3.08594,-0.56641 1.03516,-0.5664 1.03516,-1.67968 0,-0.9375 -0.72266,-1.38672 -0.70313,-0.46875 -2.83203,-0.72266 l -1.23047,-0.15625 q -4.66797,-0.58594 -6.54297,-2.16797 -1.875,-1.58203 -1.875,-4.80469 0,-3.47656 2.38281,-5.15625 2.38282,-1.67968 7.30469,-1.67968 1.93359,0 4.0625,0.29297 2.12891,0.29296 4.62891,0.91796 z"
     style="font-style:normal;font-variant:normal;font-weight:bold;font-stretch:normal;font-family:sans-serif;-inkscape-font-specification:'sans-serif Bold';fill:#ffffff"
     id="path4630" /></g><text
   xml:space="preserve"
   id="text4596"
   style="font-style:normal;font-weight:normal;font-size:40px;line-height:1.25;font-family:sans-serif;letter-spacing:0px;word-spacing:0px;white-space:pre;shape-inside:url(#rect4598);fill:#ffffff;fill-opacity:1;stroke:none;" /></g>
<g
   id="g3992"
   transform="translate(-147.65039,-77.660936)">
</g>
<g
   id="g3994"
   transform="translate(-147.65039,-77.660936)">
</g>
<g
   id="g3996"
   transform="translate(-147.65039,-77.660936)">
</g>
<g
   id="g3998"
   transform="translate(-147.65039,-77.660936)">
</g>
<g
   id="g4000"
   transform="translate(-147.65039,-77.660936)">
</g>
<g
   id="g4002"
   transform="translate(-147.65039,-77.660936)">
</g>
<g
   id="g4004"
   transform="translate(-147.65039,-77.660936)">
</g>
<g
   id="g4006"
   transform="translate(-147.65039,-77.660936)">
</g>
<g
   id="g4008"
   transform="translate(-147.65039,-77.660936)">
</g>
<g
   id="g4010"
   transform="translate(-147.65039,-77.660936)">
</g>
<g
   id="g4012"
   transform="translate(-147.65039,-77.660936)">
</g>
<g
   id="g4014"
   transform="translate(-147.65039,-77.660936)">
</g>
<g
   id="g4016"
   transform="translate(-147.65039,-77.660936)">
</g>
<g
   id="g4018"
   transform="translate(-147.65039,-77.660936)">
</g>
<g
   id="g4020"
   transform="translate(-147.65039,-77.660936)">
</g>
</svg>
