<?xml version="1.0" encoding="UTF-8" standalone="no"?>
<svg
   xmlns:dc="http://purl.org/dc/elements/1.1/"
   xmlns:cc="http://creativecommons.org/ns#"
   xmlns:rdf="http://www.w3.org/1999/02/22-rdf-syntax-ns#"
   xmlns:svg="http://www.w3.org/2000/svg"
   xmlns="http://www.w3.org/2000/svg"
   id="svg8"
   version="1.1"
   viewBox="0 0 180 180"
   height="180mm"
   width="180mm">
  <defs
     id="defs2" />
  <metadata
     id="metadata5">
    <rdf:RDF>
      <cc:Work
         rdf:about="">
        <dc:format>image/svg+xml</dc:format>
        <dc:type
           rdf:resource="http://purl.org/dc/dcmitype/StillImage" />
        <dc:title></dc:title>
      </cc:Work>
    </rdf:RDF>
  </metadata>
  <g
     transform="translate(0,-117)"
     id="layer1">
    <g
       id="flowRoot1414"
       style="font-style:normal;font-weight:normal;font-size:40px;line-height:1.25;font-family:sans-serif;letter-spacing:0px;word-spacing:0px;fill:#000000;fill-opacity:1;stroke:none"
       transform="matrix(0.26458333,0,0,0.26458333,-9.5164264,128.11257)"
       aria-label="

TFNE
Visualizer

[logo placeholder for beta]">
      <path
         id="path1436"
         style="font-style:normal;font-variant:normal;font-weight:bold;font-stretch:normal;font-size:85.33333588px;font-family:sans-serif;-inkscape-font-specification:'sans-serif Bold';text-align:center;text-anchor:middle"
         d="m 255.82129,113.60612 h 57.33333 v 12.125 h -20.625 v 50.08334 h -16.04167 v -50.08334 h -20.66666 z" />
      <path
         id="path1438"
         style="font-style:normal;font-variant:normal;font-weight:bold;font-stretch:normal;font-size:85.33333588px;font-family:sans-serif;-inkscape-font-specification:'sans-serif Bold';text-align:center;text-anchor:middle"
         d="m 321.40462,113.60612 h 43.29167 v 12.125 h -27.25 v 11.58333 h 25.625 v 12.125 h -25.625 v 26.37501 h -16.04167 z" />
      <path
         id="path1440"
         style="font-style:normal;font-variant:normal;font-weight:bold;font-stretch:normal;font-size:85.33333588px;font-family:sans-serif;-inkscape-font-specification:'sans-serif Bold';text-align:center;text-anchor:middle"
         d="m 379.73795,113.60612 h 17.91667 l 22.625,42.66667 v -42.66667 h 15.20833 v 62.20834 h -17.91666 l -22.625,-42.66667 v 42.66667 h -15.20834 z" />
      <path
         id="path1442"
         style="font-style:normal;font-variant:normal;font-weight:bold;font-stretch:normal;font-size:85.33333588px;font-family:sans-serif;-inkscape-font-specification:'sans-serif Bold';text-align:center;text-anchor:middle"
         d="m 451.23795,113.60612 h 43.29167 v 12.125 h -27.25 v 11.58333 h 25.625 v 12.125 h -25.625 v 14.25001 h 28.16667 v 12.125 h -44.20834 z" />
      <path
         id="path1444"
         style="font-style:normal;font-variant:normal;font-weight:bold;font-stretch:normal;font-size:85.33333588px;font-family:sans-serif;-inkscape-font-specification:'sans-serif Bold';text-align:center;text-anchor:middle"
         d="m 143.23795,220.27279 h 16.125 l 16.5,45.91667 16.45833,-45.91667 h 16.125 l -23.04166,62.20834 h -19.125 z" />
      <path
         id="path1446"
         style="font-style:normal;font-variant:normal;font-weight:bold;font-stretch:normal;font-size:85.33333588px;font-family:sans-serif;-inkscape-font-specification:'sans-serif Bold';text-align:center;text-anchor:middle"
         d="m 214.48795,235.81446 h 14.91667 v 46.66667 h -14.91667 z m 0,-18.16667 h 14.91667 v 12.16667 h -14.91667 z" />
      <path
         id="path1448"
         style="font-style:normal;font-variant:normal;font-weight:bold;font-stretch:normal;font-size:85.33333588px;font-family:sans-serif;-inkscape-font-specification:'sans-serif Bold';text-align:center;text-anchor:middle"
         d="m 280.27962,237.27279 v 11.33334 q -4.79167,-2 -9.25,-3 -4.45833,-1 -8.41667,-1 -4.25,0 -6.33333,1.08333 -2.04167,1.04167 -2.04167,3.25 0,1.79167 1.54167,2.75 1.58333,0.95833 5.625,1.41667 l 2.625,0.375 q 11.45833,1.45833 15.41667,4.79166 3.95833,3.33334 3.95833,10.45834 0,7.45833 -5.5,11.20833 -5.5,3.75 -16.41667,3.75 -4.625,0 -9.58333,-0.75 -4.91667,-0.70833 -10.125,-2.16667 v -11.33333 q 4.45833,2.16667 9.125,3.25 4.70833,1.08333 9.54167,1.08333 4.375,0 6.58333,-1.20833 2.20833,-1.20833 2.20833,-3.58333 0,-2 -1.54166,-2.95834 -1.5,-1 -6.04167,-1.54166 l -2.625,-0.33334 q -9.95834,-1.25 -13.95834,-4.625 -4,-3.375 -4,-10.25 0,-7.41666 5.08334,-11 5.08333,-3.58333 15.58333,-3.58333 4.125,0 8.66667,0.625 4.54167,0.625 9.875,1.95833 z" />
      <path
         id="path1450"
         style="font-style:normal;font-variant:normal;font-weight:bold;font-stretch:normal;font-size:85.33333588px;font-family:sans-serif;-inkscape-font-specification:'sans-serif Bold';text-align:center;text-anchor:middle"
         d="m 294.15462,264.31446 v -28.5 h 15 v 4.66667 q 0,3.79166 -0.0417,9.54166 -0.0417,5.70834 -0.0417,7.625 0,5.625 0.29166,8.125 0.29167,2.45834 1,3.58334 0.91667,1.45833 2.375,2.25 1.5,0.79166 3.41667,0.79166 4.66667,0 7.33333,-3.58333 2.66667,-3.58333 2.66667,-9.95833 v -23.04167 h 14.91667 v 46.66667 h -14.91667 v -6.75 q -3.375,4.08333 -7.16667,6.04166 -3.75,1.91667 -8.29166,1.91667 -8.08334,0 -12.33334,-4.95833 -4.20833,-4.95834 -4.20833,-14.41667 z" />
      <path
         id="path1452"
         style="font-style:normal;font-variant:normal;font-weight:bold;font-stretch:normal;font-size:85.33333588px;font-family:sans-serif;-inkscape-font-specification:'sans-serif Bold';text-align:center;text-anchor:middle"
         d="m 376.40462,261.48113 q -4.66667,0 -7.04167,1.58333 -2.33333,1.58333 -2.33333,4.66667 0,2.83333 1.875,4.45833 1.91666,1.58333 5.29166,1.58333 4.20834,0 7.08334,-3 2.875,-3.04166 2.875,-7.58333 v -1.70833 z m 22.79166,-5.625 v 26.625 h -15.04166 v -6.91667 q -3,4.25 -6.75,6.20833 -3.75,1.91667 -9.125,1.91667 -7.25,0 -11.79167,-4.20833 -4.5,-4.25 -4.5,-11 0,-8.20834 5.625,-12.04167 5.66667,-3.83333 17.75,-3.83333 h 8.79167 v -1.16667 q 0,-3.54167 -2.79167,-5.16667 -2.79167,-1.66666 -8.70833,-1.66666 -4.79167,0 -8.91667,0.95833 -4.125,0.95833 -7.66667,2.875 v -11.375 q 4.79167,-1.16667 9.625,-1.75 4.83334,-0.625 9.66667,-0.625 12.625,0 18.20833,5 5.625,4.95833 5.625,16.16667 z" />
      <path
         id="path1454"
         style="font-style:normal;font-variant:normal;font-weight:bold;font-stretch:normal;font-size:85.33333588px;font-family:sans-serif;-inkscape-font-specification:'sans-serif Bold';text-align:center;text-anchor:middle"
         d="m 413.15464,217.64779 h 14.91666 v 64.83334 h -14.91666 z" />
      <path
         id="path1456"
         style="font-style:normal;font-variant:normal;font-weight:bold;font-stretch:normal;font-size:85.33333588px;font-family:sans-serif;-inkscape-font-specification:'sans-serif Bold';text-align:center;text-anchor:middle"
         d="m 442.48795,235.81446 h 14.91667 v 46.66667 h -14.91667 z m 0,-18.16667 h 14.91667 v 12.16667 h -14.91667 z" />
      <path
         id="path1458"
         style="font-style:normal;font-variant:normal;font-weight:bold;font-stretch:normal;font-size:85.33333588px;font-family:sans-serif;-inkscape-font-specification:'sans-serif Bold';text-align:center;text-anchor:middle"
         d="m 469.52963,235.81446 h 40.70833 v 10.41667 l -24.58333,25.58333 h 24.58333 v 10.66667 h -41.75 v -10.41667 l 24.58333,-25.58333 h -23.54166 z" />
      <path
         id="path1460"
         style="font-style:normal;font-variant:normal;font-weight:bold;font-stretch:normal;font-size:85.33333588px;font-family:sans-serif;-inkscape-font-specification:'sans-serif Bold';text-align:center;text-anchor:middle"
         d="m 568.07128,259.02279 v 4.25 h -34.875 q 0.54167,5.25 3.79167,7.875 3.25,2.625 9.08333,2.625 4.70834,0 9.625,-1.375 4.95834,-1.41666 10.16667,-4.25 v 11.5 q -5.29167,2 -10.58333,3 -5.29167,1.04167 -10.58334,1.04167 -12.66666,0 -19.70833,-6.41667 -7,-6.45833 -7,-18.08333 0,-11.41667 6.875,-17.95833 6.91667,-6.54167 19,-6.54167 11,0 17.58333,6.625 6.625,6.625 6.625,17.70833 z m -15.33333,-4.95833 q 0,-4.25 -2.5,-6.83333 -2.45833,-2.625 -6.45833,-2.625 -4.33334,0 -7.04167,2.45833 -2.70833,2.41667 -3.375,7 z" />
      <path
         id="path1462"
         style="font-style:normal;font-variant:normal;font-weight:bold;font-stretch:normal;font-size:85.33333588px;font-family:sans-serif;-inkscape-font-specification:'sans-serif Bold';text-align:center;text-anchor:middle"
         d="m 613.98796,248.52279 q -1.95833,-0.91666 -3.91667,-1.33333 -1.91666,-0.45833 -3.875,-0.45833 -5.75,0 -8.875,3.70833 -3.08333,3.66667 -3.08333,10.54167 v 21.5 h -14.91667 v -46.66667 h 14.91667 v 7.66667 q 2.875,-4.58334 6.58333,-6.66667 3.75,-2.125 8.95834,-2.125 0.75,0 1.625,0.0833 0.875,0.0417 2.54166,0.25 z" />
      <path
         id="path1464"
         style="font-style:normal;font-variant:normal;font-weight:bold;font-stretch:normal;font-size:42.66666794px;font-family:sans-serif;-inkscape-font-specification:'sans-serif Bold'"
         d="m 55.094401,368.98113 h 12.937501 v 4.6875 h -5.854167 v 28.66667 h 5.854167 v 4.6875 H 55.094401 Z" />
      <path
         id="path1466"
         style="font-style:normal;font-variant:normal;font-weight:bold;font-stretch:normal;font-size:42.66666794px;font-family:sans-serif;-inkscape-font-specification:'sans-serif Bold'"
         d="m 74.511068,368.98113 h 7.458333 v 32.41667 h -7.458333 z" />
      <path
         id="path1468"
         style="font-style:normal;font-variant:normal;font-weight:bold;font-stretch:normal;font-size:42.66666794px;font-family:sans-serif;-inkscape-font-specification:'sans-serif Bold'"
         d="m 100.2819,382.8353 q -2.479164,0 -3.791664,1.79166 -1.291667,1.77084 -1.291667,5.125 0,3.35417 1.291667,5.14584 1.3125,1.77083 3.791664,1.77083 2.4375,0 3.72917,-1.77083 1.29167,-1.79167 1.29167,-5.14584 0,-3.35416 -1.29167,-5.125 -1.29167,-1.79166 -3.72917,-1.79166 z m 0,-5.33334 q 6.02084,0 9.39584,3.25 3.39583,3.25 3.39583,9 0,5.75 -3.39583,9 -3.375,3.25 -9.39584,3.25 -6.041664,0 -9.458331,-3.25 -3.395833,-3.25 -3.395833,-9 0,-5.75 3.395833,-9 3.416667,-3.25 9.458331,-3.25 z" />
      <path
         id="path1470"
         style="font-style:normal;font-variant:normal;font-weight:bold;font-stretch:normal;font-size:42.66666794px;font-family:sans-serif;-inkscape-font-specification:'sans-serif Bold'"
         d="m 134.38607,397.43946 q -1.54167,2.04167 -3.39584,3 -1.85416,0.95834 -4.29166,0.95834 -4.27084,0 -7.0625,-3.35417 -2.79167,-3.375 -2.79167,-8.58333 0,-5.22917 2.79167,-8.5625 2.79166,-3.35417 7.0625,-3.35417 2.4375,0 4.29166,0.95833 1.85417,0.95834 3.39584,3.02084 v -3.45834 h 7.5 v 20.97917 q 0,5.625 -3.5625,8.58333 -3.54167,2.97917 -10.29167,2.97917 -2.1875,0 -4.22917,-0.33333 -2.04166,-0.33334 -4.10416,-1.02084 v -5.8125 q 1.95833,1.125 3.83333,1.66667 1.875,0.5625 3.77083,0.5625 3.66667,0 5.375,-1.60417 1.70834,-1.60416 1.70834,-5.02083 z m -4.91667,-14.52083 q -2.3125,0 -3.60417,1.70833 -1.29166,1.70834 -1.29166,4.83334 0,3.20833 1.25,4.875 1.25,1.64583 3.64583,1.64583 2.33333,0 3.625,-1.70833 1.29167,-1.70834 1.29167,-4.8125 0,-3.125 -1.29167,-4.83334 -1.29167,-1.70833 -3.625,-1.70833 z" />
      <path
         id="path1472"
         style="font-style:normal;font-variant:normal;font-weight:bold;font-stretch:normal;font-size:42.66666794px;font-family:sans-serif;-inkscape-font-specification:'sans-serif Bold'"
         d="m 160.19857,382.8353 q -2.47917,0 -3.79167,1.79166 -1.29166,1.77084 -1.29166,5.125 0,3.35417 1.29166,5.14584 1.3125,1.77083 3.79167,1.77083 2.4375,0 3.72917,-1.77083 1.29166,-1.79167 1.29166,-5.14584 0,-3.35416 -1.29166,-5.125 -1.29167,-1.79166 -3.72917,-1.79166 z m 0,-5.33334 q 6.02083,0 9.39583,3.25 3.39584,3.25 3.39584,9 0,5.75 -3.39584,9 -3.375,3.25 -9.39583,3.25 -6.04167,0 -9.45833,-3.25 -3.39584,-3.25 -3.39584,-9 0,-5.75 3.39584,-9 3.41666,-3.25 9.45833,-3.25 z" />
      <path
         id="path1474"
         style="font-style:normal;font-variant:normal;font-weight:bold;font-stretch:normal;font-size:42.66666794px;font-family:sans-serif;-inkscape-font-specification:'sans-serif Bold'"
         d="m 200.7194,398.0228 v 12.25 h -7.45833 v -32.20834 h 7.45833 v 3.41667 q 1.54167,-2.04167 3.41667,-3 1.875,-0.97917 4.3125,-0.97917 4.3125,0 7.08333,3.4375 2.77084,3.41667 2.77084,8.8125 0,5.39584 -2.77084,8.83334 -2.77083,3.41666 -7.08333,3.41666 -2.4375,0 -4.3125,-0.95833 -1.875,-0.97917 -3.41667,-3.02083 z m 4.95833,-15.10417 q -2.39583,0 -3.6875,1.77083 -1.27083,1.75 -1.27083,5.0625 0,3.3125 1.27083,5.08334 1.29167,1.75 3.6875,1.75 2.39584,0 3.64584,-1.75 1.27083,-1.75 1.27083,-5.08334 0,-3.33333 -1.27083,-5.08333 -1.25,-1.75 -3.64584,-1.75 z" />
      <path
         id="path1476"
         style="font-style:normal;font-variant:normal;font-weight:bold;font-stretch:normal;font-size:42.66666794px;font-family:sans-serif;-inkscape-font-specification:'sans-serif Bold'"
         d="m 223.84441,368.98113 h 7.45833 v 32.41667 h -7.45833 z" />
      <path
         id="path1478"
         style="font-style:normal;font-variant:normal;font-weight:bold;font-stretch:normal;font-size:42.66666794px;font-family:sans-serif;-inkscape-font-specification:'sans-serif Bold'"
         d="m 248.9694,390.8978 q -2.33333,0 -3.52083,0.79166 -1.16667,0.79167 -1.16667,2.33334 0,1.41666 0.9375,2.22916 0.95833,0.79167 2.64583,0.79167 2.10417,0 3.54167,-1.5 1.4375,-1.52083 1.4375,-3.79167 v -0.85416 z m 11.39584,-2.8125 v 13.3125 h -7.52084 v -3.45834 q -1.5,2.125 -3.375,3.10417 -1.875,0.95833 -4.5625,0.95833 -3.625,0 -5.89583,-2.10416 -2.25,-2.125 -2.25,-5.5 0,-4.10417 2.8125,-6.02084 2.83333,-1.91666 8.875,-1.91666 h 4.39583 v -0.58334 q 0,-1.77083 -1.39583,-2.58333 -1.39584,-0.83333 -4.35417,-0.83333 -2.39583,0 -4.45833,0.47916 -2.0625,0.47917 -3.83334,1.4375 v -5.6875 q 2.39584,-0.58333 4.8125,-0.875 2.41667,-0.3125 4.83334,-0.3125 6.3125,0 9.10417,2.5 2.8125,2.47917 2.8125,8.08334 z" />
      <path
         id="path1480"
         style="font-style:normal;font-variant:normal;font-weight:bold;font-stretch:normal;font-size:42.66666794px;font-family:sans-serif;-inkscape-font-specification:'sans-serif Bold'"
         d="m 286.19858,378.79363 v 6.08333 q -1.52083,-1.04166 -3.0625,-1.54166 -1.52083,-0.5 -3.16667,-0.5 -3.125,0 -4.875,1.83333 -1.72917,1.8125 -1.72917,5.08333 0,3.27084 1.72917,5.10417 1.75,1.8125 4.875,1.8125 1.75,0 3.3125,-0.52083 1.58334,-0.52084 2.91667,-1.54167 v 6.10417 q -1.75,0.64583 -3.5625,0.95833 -1.79167,0.33333 -3.60417,0.33333 -6.3125,0 -9.875,-3.22916 -3.5625,-3.25 -3.5625,-9.02084 0,-5.77083 3.5625,-9 3.5625,-3.25 9.875,-3.25 1.83334,0 3.60417,0.33334 1.79167,0.3125 3.5625,0.95833 z" />
      <path
         id="path1482"
         style="font-style:normal;font-variant:normal;font-weight:bold;font-stretch:normal;font-size:42.66666794px;font-family:sans-serif;-inkscape-font-specification:'sans-serif Bold'"
         d="m 315.96941,389.66863 v 2.125 h -17.4375 q 0.27083,2.625 1.89583,3.9375 1.625,1.3125 4.54167,1.3125 2.35416,0 4.8125,-0.6875 2.47916,-0.70833 5.08333,-2.125 v 5.75 q -2.64583,1 -5.29167,1.5 -2.64583,0.52083 -5.29166,0.52083 -6.33334,0 -9.85417,-3.20833 -3.5,-3.22917 -3.5,-9.04167 0,-5.70833 3.4375,-8.97916 3.45833,-3.27084 9.5,-3.27084 5.5,0 8.79167,3.3125 3.3125,3.3125 3.3125,8.85417 z m -7.66667,-2.47917 q 0,-2.125 -1.25,-3.41666 -1.22917,-1.3125 -3.22917,-1.3125 -2.16666,0 -3.52083,1.22916 -1.35417,1.20834 -1.6875,3.5 z" />
      <path
         id="path1484"
         style="font-style:normal;font-variant:normal;font-weight:bold;font-stretch:normal;font-size:42.66666794px;font-family:sans-serif;-inkscape-font-specification:'sans-serif Bold'"
         d="m 345.05275,387.18946 v 14.20834 h -7.5 v -2.3125 -8.52084 q 0,-3.0625 -0.14584,-4.20833 -0.125,-1.14583 -0.45833,-1.6875 -0.4375,-0.72917 -1.1875,-1.125 -0.75,-0.41667 -1.70833,-0.41667 -2.33334,0 -3.66667,1.8125 -1.33334,1.79167 -1.33334,4.97917 v 11.47917 h -7.45833 v -32.41667 h 7.45833 v 12.5 q 1.6875,-2.04167 3.58334,-3 1.89583,-0.97917 4.1875,-0.97917 4.04167,0 6.125,2.47917 2.10417,2.47917 2.10417,7.20833 z" />
      <path
         id="path1486"
         style="font-style:normal;font-variant:normal;font-weight:bold;font-stretch:normal;font-size:42.66666794px;font-family:sans-serif;-inkscape-font-specification:'sans-serif Bold'"
         d="m 363.11523,382.8353 q -2.47916,0 -3.79166,1.79166 -1.29167,1.77084 -1.29167,5.125 0,3.35417 1.29167,5.14584 1.3125,1.77083 3.79166,1.77083 2.4375,0 3.72917,-1.77083 1.29167,-1.79167 1.29167,-5.14584 0,-3.35416 -1.29167,-5.125 -1.29167,-1.79166 -3.72917,-1.79166 z m 0,-5.33334 q 6.02084,0 9.39584,3.25 3.39583,3.25 3.39583,9 0,5.75 -3.39583,9 -3.375,3.25 -9.39584,3.25 -6.04166,0 -9.45833,-3.25 -3.39583,-3.25 -3.39583,-9 0,-5.75 3.39583,-9 3.41667,-3.25 9.45833,-3.25 z" />
      <path
         id="path1488"
         style="font-style:normal;font-variant:normal;font-weight:bold;font-stretch:normal;font-size:42.66666794px;font-family:sans-serif;-inkscape-font-specification:'sans-serif Bold'"
         d="m 381.34441,368.98113 h 7.45833 v 32.41667 h -7.45833 z" />
      <path
         id="path1490"
         style="font-style:normal;font-variant:normal;font-weight:bold;font-stretch:normal;font-size:42.66666794px;font-family:sans-serif;-inkscape-font-specification:'sans-serif Bold'"
         d="m 411.88607,381.48113 v -12.5 h 7.5 v 32.41667 h -7.5 v -3.375 q -1.54167,2.0625 -3.39584,3.02083 -1.85416,0.95833 -4.29166,0.95833 -4.3125,0 -7.08334,-3.41666 -2.77083,-3.4375 -2.77083,-8.83334 0,-5.39583 2.77083,-8.8125 2.77084,-3.4375 7.08334,-3.4375 2.41666,0 4.27083,0.97917 1.875,0.95833 3.41667,3 z m -4.91667,15.10417 q 2.39583,0 3.64583,-1.75 1.27084,-1.75 1.27084,-5.08334 0,-3.33333 -1.27084,-5.08333 -1.25,-1.75 -3.64583,-1.75 -2.375,0 -3.64583,1.75 -1.25,1.75 -1.25,5.08333 0,3.33334 1.25,5.08334 1.27083,1.75 3.64583,1.75 z" />
      <path
         id="path1492"
         style="font-style:normal;font-variant:normal;font-weight:bold;font-stretch:normal;font-size:42.66666794px;font-family:sans-serif;-inkscape-font-specification:'sans-serif Bold'"
         d="m 449.88608,389.66863 v 2.125 h -17.4375 q 0.27083,2.625 1.89583,3.9375 1.625,1.3125 4.54167,1.3125 2.35417,0 4.8125,-0.6875 2.47917,-0.70833 5.08333,-2.125 v 5.75 q -2.64583,1 -5.29166,1.5 -2.64584,0.52083 -5.29167,0.52083 -6.33334,0 -9.85417,-3.20833 -3.5,-3.22917 -3.5,-9.04167 0,-5.70833 3.4375,-8.97916 3.45833,-3.27084 9.5,-3.27084 5.5,0 8.79167,3.3125 3.3125,3.3125 3.3125,8.85417 z m -7.66667,-2.47917 q 0,-2.125 -1.25,-3.41666 -1.22916,-1.3125 -3.22917,-1.3125 -2.16666,0 -3.52083,1.22916 -1.35417,1.20834 -1.6875,3.5 z" />
      <path
         id="path1494"
         style="font-style:normal;font-variant:normal;font-weight:bold;font-stretch:normal;font-size:42.66666794px;font-family:sans-serif;-inkscape-font-specification:'sans-serif Bold'"
         d="m 472.8444,384.41863 q -0.97917,-0.45833 -1.95833,-0.66667 -0.95834,-0.22916 -1.9375,-0.22916 -2.875,0 -4.4375,1.85416 -1.54167,1.83334 -1.54167,5.27084 v 10.75 h -7.45833 v -23.33334 h 7.45833 v 3.83334 q 1.4375,-2.29167 3.29167,-3.33334 1.875,-1.0625 4.47916,-1.0625 0.375,0 0.8125,0.0417 0.4375,0.0208 1.27084,0.125 z" />
      <path
         id="path1496"
         style="font-style:normal;font-variant:normal;font-weight:bold;font-stretch:normal;font-size:42.66666794px;font-family:sans-serif;-inkscape-font-specification:'sans-serif Bold'"
         d="m 506.78192,368.98113 v 4.89583 h -4.125 q -1.58333,0 -2.20833,0.58334 -0.625,0.5625 -0.625,1.97916 v 1.625 h 6.375 v 5.33334 h -6.375 v 18 h -7.45834 v -18 h -3.70833 v -5.33334 h 3.70833 v -1.625 q 0,-3.8125 2.125,-5.625 2.125,-1.83333 6.58334,-1.83333 z" />
      <path
         id="path1498"
         style="font-style:normal;font-variant:normal;font-weight:bold;font-stretch:normal;font-size:42.66666794px;font-family:sans-serif;-inkscape-font-specification:'sans-serif Bold'"
         d="m 521.11523,382.8353 q -2.47916,0 -3.79166,1.79166 -1.29167,1.77084 -1.29167,5.125 0,3.35417 1.29167,5.14584 1.3125,1.77083 3.79166,1.77083 2.4375,0 3.72917,-1.77083 1.29167,-1.79167 1.29167,-5.14584 0,-3.35416 -1.29167,-5.125 -1.29167,-1.79166 -3.72917,-1.79166 z m 0,-5.33334 q 6.02084,0 9.39584,3.25 3.39583,3.25 3.39583,9 0,5.75 -3.39583,9 -3.375,3.25 -9.39584,3.25 -6.04166,0 -9.45833,-3.25 -3.39583,-3.25 -3.39583,-9 0,-5.75 3.39583,-9 3.41667,-3.25 9.45833,-3.25 z" />
      <path
         id="path1500"
         style="font-style:normal;font-variant:normal;font-weight:bold;font-stretch:normal;font-size:42.66666794px;font-family:sans-serif;-inkscape-font-specification:'sans-serif Bold'"
         d="m 556.67775,384.41863 q -0.97917,-0.45833 -1.95834,-0.66667 -0.95833,-0.22916 -1.9375,-0.22916 -2.875,0 -4.4375,1.85416 -1.54167,1.83334 -1.54167,5.27084 v 10.75 h -7.45833 v -23.33334 h 7.45833 v 3.83334 q 1.4375,-2.29167 3.29167,-3.33334 1.875,-1.0625 4.47917,-1.0625 0.375,0 0.8125,0.0417 0.4375,0.0208 1.27083,0.125 z" />
      <path
         id="path1502"
         style="font-style:normal;font-variant:normal;font-weight:bold;font-stretch:normal;font-size:42.66666794px;font-family:sans-serif;-inkscape-font-specification:'sans-serif Bold'"
         d="m 587.67773,396.5853 q 2.39584,0 3.64584,-1.75 1.27083,-1.75 1.27083,-5.08334 0,-3.33333 -1.27083,-5.08333 -1.25,-1.75 -3.64584,-1.75 -2.39583,0 -3.6875,1.77083 -1.27083,1.75 -1.27083,5.0625 0,3.3125 1.27083,5.08334 1.29167,1.75 3.6875,1.75 z m -4.95833,-15.10417 q 1.54167,-2.04167 3.41667,-3 1.875,-0.97917 4.3125,-0.97917 4.3125,0 7.08333,3.4375 2.77084,3.41667 2.77084,8.8125 0,5.39584 -2.77084,8.83334 -2.77083,3.41666 -7.08333,3.41666 -2.4375,0 -4.3125,-0.95833 -1.875,-0.97917 -3.41667,-3.02083 v 3.375 h -7.45833 v -32.41667 h 7.45833 z" />
      <path
         id="path1504"
         style="font-style:normal;font-variant:normal;font-weight:bold;font-stretch:normal;font-size:42.66666794px;font-family:sans-serif;-inkscape-font-specification:'sans-serif Bold'"
         d="m 629.13611,389.66863 v 2.125 h -17.4375 q 0.27083,2.625 1.89583,3.9375 1.625,1.3125 4.54167,1.3125 2.35417,0 4.8125,-0.6875 2.47917,-0.70833 5.08333,-2.125 v 5.75 q -2.64583,1 -5.29166,1.5 -2.64584,0.52083 -5.29167,0.52083 -6.33333,0 -9.85417,-3.20833 -3.5,-3.22917 -3.5,-9.04167 0,-5.70833 3.4375,-8.97916 3.45834,-3.27084 9.5,-3.27084 5.5,0 8.79167,3.3125 3.3125,3.3125 3.3125,8.85417 z m -7.66667,-2.47917 q 0,-2.125 -1.25,-3.41666 -1.22916,-1.3125 -3.22916,-1.3125 -2.16667,0 -3.52084,1.22916 -1.35416,1.20834 -1.6875,3.5 z" />
      <path
         id="path1506"
         style="font-style:normal;font-variant:normal;font-weight:bold;font-stretch:normal;font-size:42.66666794px;font-family:sans-serif;-inkscape-font-specification:'sans-serif Bold'"
         d="m 642.9069,371.43946 v 6.625 h 7.6875 v 5.33334 h -7.6875 v 9.89583 q 0,1.625 0.64583,2.20833 0.64584,0.5625 2.5625,0.5625 h 3.83334 v 5.33334 h -6.39584 q -4.41666,0 -6.27083,-1.83334 -1.83333,-1.85416 -1.83333,-6.27083 v -9.89583 h -3.70834 v -5.33334 h 3.70834 v -6.625 z" />
      <path
         id="path1508"
         style="font-style:normal;font-variant:normal;font-weight:bold;font-stretch:normal;font-size:42.66666794px;font-family:sans-serif;-inkscape-font-specification:'sans-serif Bold'"
         d="m 665.63609,390.8978 q -2.33333,0 -3.52083,0.79166 -1.16667,0.79167 -1.16667,2.33334 0,1.41666 0.9375,2.22916 0.95833,0.79167 2.64583,0.79167 2.10417,0 3.54167,-1.5 1.4375,-1.52083 1.4375,-3.79167 v -0.85416 z m 11.39583,-2.8125 v 13.3125 h -7.52083 v -3.45834 q -1.5,2.125 -3.375,3.10417 -1.875,0.95833 -4.5625,0.95833 -3.625,0 -5.89584,-2.10416 -2.25,-2.125 -2.25,-5.5 0,-4.10417 2.8125,-6.02084 2.83334,-1.91666 8.87501,-1.91666 h 4.39583 v -0.58334 q 0,-1.77083 -1.39583,-2.58333 -1.39584,-0.83333 -4.35417,-0.83333 -2.39583,0 -4.45834,0.47916 -2.0625,0.47917 -3.83333,1.4375 v -5.6875 q 2.39583,-0.58333 4.8125,-0.875 2.41667,-0.3125 4.83334,-0.3125 6.3125,0 9.10416,2.5 2.8125,2.47917 2.8125,8.08334 z" />
      <path
         id="path1510"
         style="font-style:normal;font-variant:normal;font-weight:bold;font-stretch:normal;font-size:42.66666794px;font-family:sans-serif;-inkscape-font-specification:'sans-serif Bold'"
         d="m 696.26107,407.0228 h -12.9375 v -4.6875 h 5.85416 v -28.66667 h -5.85416 v -4.6875 h 12.9375 z" />
    </g>
  </g>
</svg>
